<mxfile host="app.diagrams.net" modified="2023-02-09T03:19:43.401Z" agent="5.0 (Windows NT 10.0; Win64; x64) AppleWebKit/537.36 (KHTML, like Gecko) Chrome/109.0.0.0 Safari/537.36" etag="BDqzYYmCT8GwRx-TbYaF" version="18.0.3" type="github">
  <diagram id="0OIr32N4mZWq5NwwVB7Z" name="Page-1">
    <mxGraphModel dx="2187" dy="745" grid="1" gridSize="10" guides="1" tooltips="1" connect="1" arrows="1" fold="1" page="1" pageScale="1" pageWidth="827" pageHeight="1169" math="0" shadow="0">
      <root>
        <mxCell id="0" />
        <mxCell id="1" parent="0" />
        <mxCell id="_o6XQVJBd2mjOYgitS4h-54" value="" style="rounded=0;whiteSpace=wrap;html=1;labelBackgroundColor=none;labelBorderColor=default;fontFamily=Times New Roman;fontSize=15;" vertex="1" parent="1">
          <mxGeometry x="280" y="70" width="1350" height="610" as="geometry" />
        </mxCell>
        <mxCell id="84oyKUZuQ5dPgv2zPIhg-3" value="" style="rounded=1;whiteSpace=wrap;html=1;fillColor=#d5e8d4;strokeColor=#82b366;" parent="1" vertex="1">
          <mxGeometry x="-450" y="140" width="260" height="272.5" as="geometry" />
        </mxCell>
        <mxCell id="84oyKUZuQ5dPgv2zPIhg-2" value="" style="rounded=1;whiteSpace=wrap;html=1;fillColor=#dae8fc;strokeColor=#6c8ebf;" parent="1" vertex="1">
          <mxGeometry x="-402.5" y="200" width="165" height="165" as="geometry" />
        </mxCell>
        <mxCell id="84oyKUZuQ5dPgv2zPIhg-1" value="" style="rounded=1;whiteSpace=wrap;html=1;fillColor=#ffe6cc;strokeColor=#d79b00;" parent="1" vertex="1">
          <mxGeometry x="-360" y="252.5" width="80" height="60" as="geometry" />
        </mxCell>
        <mxCell id="84oyKUZuQ5dPgv2zPIhg-4" value="" style="rounded=1;whiteSpace=wrap;html=1;" parent="1" vertex="1">
          <mxGeometry x="340" y="260" width="500" height="300" as="geometry" />
        </mxCell>
        <mxCell id="84oyKUZuQ5dPgv2zPIhg-5" value="Master Node(s)&lt;br&gt;组件构成" style="text;html=1;strokeColor=none;fillColor=none;align=center;verticalAlign=middle;whiteSpace=wrap;rounded=0;fontSize=15;fontStyle=1;fontFamily=Times New Roman;" parent="1" vertex="1">
          <mxGeometry x="344" y="290" width="140" height="35" as="geometry" />
        </mxCell>
        <mxCell id="84oyKUZuQ5dPgv2zPIhg-6" value="etcd" style="shape=cylinder3;whiteSpace=wrap;html=1;boundedLbl=1;backgroundOutline=1;size=15;fontFamily=Times New Roman;fontSize=15;" parent="1" vertex="1">
          <mxGeometry x="500" y="336.25" width="76" height="67.5" as="geometry" />
        </mxCell>
        <mxCell id="84oyKUZuQ5dPgv2zPIhg-7" value="API Server" style="rounded=0;whiteSpace=wrap;html=1;fontFamily=Times New Roman;fontSize=15;fillColor=#dae8fc;strokeColor=#6c8ebf;" parent="1" vertex="1">
          <mxGeometry x="680" y="340" width="120" height="60" as="geometry" />
        </mxCell>
        <mxCell id="84oyKUZuQ5dPgv2zPIhg-8" value="Controller&lt;br&gt;Manager" style="rounded=0;whiteSpace=wrap;html=1;fontFamily=Times New Roman;fontSize=15;fillColor=#d5e8d4;strokeColor=#82b366;" parent="1" vertex="1">
          <mxGeometry x="680" y="470" width="120" height="60" as="geometry" />
        </mxCell>
        <mxCell id="84oyKUZuQ5dPgv2zPIhg-9" value="Scheduler" style="rounded=0;whiteSpace=wrap;html=1;fontFamily=Times New Roman;fontSize=15;fillColor=#f8cecc;strokeColor=#b85450;" parent="1" vertex="1">
          <mxGeometry x="490" y="470" width="120" height="60" as="geometry" />
        </mxCell>
        <mxCell id="_o6XQVJBd2mjOYgitS4h-2" value="" style="endArrow=classic;html=1;rounded=0;exitX=0;exitY=0.5;exitDx=0;exitDy=0;entryX=1;entryY=0.5;entryDx=0;entryDy=0;entryPerimeter=0;" edge="1" parent="1" source="84oyKUZuQ5dPgv2zPIhg-7" target="84oyKUZuQ5dPgv2zPIhg-6">
          <mxGeometry width="50" height="50" relative="1" as="geometry">
            <mxPoint x="700" y="390" as="sourcePoint" />
            <mxPoint x="750" y="340" as="targetPoint" />
          </mxGeometry>
        </mxCell>
        <mxCell id="_o6XQVJBd2mjOYgitS4h-3" value="" style="endArrow=classic;html=1;rounded=0;exitX=1;exitY=0;exitDx=0;exitDy=0;" edge="1" parent="1" source="84oyKUZuQ5dPgv2zPIhg-9" target="84oyKUZuQ5dPgv2zPIhg-7">
          <mxGeometry width="50" height="50" relative="1" as="geometry">
            <mxPoint x="600" y="480" as="sourcePoint" />
            <mxPoint x="650" y="430" as="targetPoint" />
          </mxGeometry>
        </mxCell>
        <mxCell id="_o6XQVJBd2mjOYgitS4h-4" value="" style="endArrow=classic;html=1;rounded=0;exitX=0.5;exitY=0;exitDx=0;exitDy=0;entryX=0.5;entryY=1;entryDx=0;entryDy=0;" edge="1" parent="1" source="84oyKUZuQ5dPgv2zPIhg-8" target="84oyKUZuQ5dPgv2zPIhg-7">
          <mxGeometry width="50" height="50" relative="1" as="geometry">
            <mxPoint x="720" y="460" as="sourcePoint" />
            <mxPoint x="770" y="410" as="targetPoint" />
          </mxGeometry>
        </mxCell>
        <mxCell id="_o6XQVJBd2mjOYgitS4h-5" value="" style="endArrow=classic;html=1;rounded=0;entryX=1;entryY=0.25;entryDx=0;entryDy=0;" edge="1" parent="1" target="84oyKUZuQ5dPgv2zPIhg-7">
          <mxGeometry width="50" height="50" relative="1" as="geometry">
            <mxPoint x="930" y="290" as="sourcePoint" />
            <mxPoint x="750" y="340" as="targetPoint" />
          </mxGeometry>
        </mxCell>
        <mxCell id="_o6XQVJBd2mjOYgitS4h-6" value="Kubelet" style="text;html=1;strokeColor=none;fillColor=none;align=center;verticalAlign=middle;whiteSpace=wrap;rounded=0;fontStyle=1;fontSize=13;fontFamily=Times New Roman;" vertex="1" parent="1">
          <mxGeometry x="930" y="280" width="60" height="17.5" as="geometry" />
        </mxCell>
        <mxCell id="_o6XQVJBd2mjOYgitS4h-7" value="" style="endArrow=classic;html=1;rounded=0;fontFamily=Times New Roman;fontSize=13;entryX=0.992;entryY=0.633;entryDx=0;entryDy=0;entryPerimeter=0;" edge="1" parent="1" target="84oyKUZuQ5dPgv2zPIhg-7">
          <mxGeometry width="50" height="50" relative="1" as="geometry">
            <mxPoint x="930" y="410" as="sourcePoint" />
            <mxPoint x="980" y="410" as="targetPoint" />
          </mxGeometry>
        </mxCell>
        <mxCell id="_o6XQVJBd2mjOYgitS4h-8" value="Kube-Proxy" style="text;html=1;strokeColor=none;fillColor=none;align=center;verticalAlign=middle;whiteSpace=wrap;rounded=0;fontFamily=Times New Roman;fontSize=13;fontStyle=1" vertex="1" parent="1">
          <mxGeometry x="930" y="395" width="90" height="30" as="geometry" />
        </mxCell>
        <mxCell id="_o6XQVJBd2mjOYgitS4h-9" value="" style="endArrow=classic;html=1;rounded=0;fontFamily=Times New Roman;fontSize=13;entryX=0.5;entryY=0;entryDx=0;entryDy=0;" edge="1" parent="1" target="84oyKUZuQ5dPgv2zPIhg-7">
          <mxGeometry width="50" height="50" relative="1" as="geometry">
            <mxPoint x="740" y="230" as="sourcePoint" />
            <mxPoint x="750" y="180" as="targetPoint" />
          </mxGeometry>
        </mxCell>
        <mxCell id="_o6XQVJBd2mjOYgitS4h-10" value="kubectl, dashboard, sdks" style="text;html=1;strokeColor=none;fillColor=none;align=center;verticalAlign=middle;whiteSpace=wrap;rounded=0;fontFamily=Times New Roman;fontSize=14;fontStyle=1" vertex="1" parent="1">
          <mxGeometry x="580" y="200" width="320" height="30" as="geometry" />
        </mxCell>
        <mxCell id="_o6XQVJBd2mjOYgitS4h-11" value="" style="shape=umlActor;verticalLabelPosition=bottom;verticalAlign=top;html=1;outlineConnect=0;fontFamily=Times New Roman;fontSize=14;" vertex="1" parent="1">
          <mxGeometry x="725" y="140" width="30" height="60" as="geometry" />
        </mxCell>
        <mxCell id="_o6XQVJBd2mjOYgitS4h-53" value="&lt;table style=&quot;border-collapse:collapse&quot;&gt;&lt;colgroup&gt;&lt;col style=&quot;width: 139px;&quot; width=&quot;139&quot;&gt;&lt;col style=&quot;width: 564px;&quot; width=&quot;564&quot;&gt;&lt;/colgroup&gt;&lt;tbody&gt;&lt;tr style=&quot;mso-height-source:userset;height:84px;&quot; height=&quot;84&quot;&gt;&lt;td style=&quot;font-size:10pt;color:#000000;border-left: .5pt solid #000000;border-top: .5pt solid #000000;border-right: .5pt solid #000000;border-bottom: .5pt solid #000000;text-align:left;mso-number-format: &#39;General&#39;;&quot;&gt;&lt;font style=&quot;font-size:10pt;color:#000000;&quot;&gt;etcd&lt;/font&gt;&lt;/td&gt;&lt;td style=&quot;font-size: 10pt; color: rgb(0, 0, 0); border-width: 0.5pt; border-style: solid; border-color: rgb(0, 0, 0); text-align: left;&quot;&gt;&lt;font style=&quot;font-size:10pt;color:#000000;&quot;&gt;集群状态集中存储。节点，pods，发布等状态，分布式数据库；&lt;br style=&quot;mso-data-placement:same-cell;&quot;&gt;etcd集群至少三个节点，可独立部署集群，也可部署在master上&lt;/font&gt;&lt;/td&gt;&lt;/tr&gt;&lt;tr style=&quot;mso-height-source:userset;height:92px;&quot; height=&quot;92&quot;&gt;&lt;td style=&quot;background-color:#c7ecff;font-size:10pt;color:#000000;border-left: .5pt solid #000000;border-top: .5pt solid #000000;border-right: .5pt solid #000000;border-bottom: .5pt solid #000000;text-align:left;mso-number-format: &#39;General&#39;;&quot;&gt;&lt;font style=&quot;font-size:10pt;color:#000000;&quot;&gt;API Server&lt;/font&gt;&lt;/td&gt;&lt;td style=&quot;background-color: rgb(199, 236, 255); font-size: 10pt; color: rgb(0, 0, 0); border-width: 0.5pt; border-style: solid; border-color: rgb(0, 0, 0); text-align: left;&quot;&gt;&lt;font style=&quot;font-size:10pt;color:#000000;&quot;&gt;接口和通讯总线，集群内部其他组件都是通过API Server和集群进行交互，可以看作是etcd的代理；是唯一能够访问操作etcd数据库的组件。&lt;br style=&quot;mso-data-placement:same-cell;&quot;&gt;是集群的事件总线。&lt;/font&gt;&lt;/td&gt;&lt;/tr&gt;&lt;tr style=&quot;mso-height-source:userset;height:66px;&quot; height=&quot;66&quot;&gt;&lt;td style=&quot;background-color:#ffe9e8;font-size:10pt;color:#000000;border-left: .5pt solid #000000;border-top: .5pt solid #000000;border-right: .5pt solid #000000;border-bottom: .5pt solid #000000;text-align:left;mso-number-format: &#39;General&#39;;&quot;&gt;&lt;font style=&quot;font-size:10pt;color:#000000;&quot;&gt;Scheduler&lt;/font&gt;&lt;/td&gt;&lt;td style=&quot;background-color: rgb(255, 233, 232); font-size: 10pt; color: rgb(0, 0, 0); border-width: 0.5pt; border-style: solid; border-color: rgb(0, 0, 0); text-align: left;&quot;&gt;&lt;font style=&quot;font-size:10pt;color:#000000;&quot;&gt;调度决策组件（发布到哪些空闲节点）&lt;br style=&quot;mso-data-placement:same-cell;&quot;&gt;K8s的调度决策算法是可以根据需要扩展的。&lt;/font&gt;&lt;/td&gt;&lt;/tr&gt;&lt;tr style=&quot;mso-height-source:userset;height:64px;&quot; height=&quot;64&quot;&gt;&lt;td style=&quot;background-color: rgb(234, 250, 241); font-size: 10pt; color: rgb(0, 0, 0); border-width: 0.5pt; border-style: solid; border-color: rgb(0, 0, 0); text-align: left;&quot;&gt;&lt;font style=&quot;font-size:10pt;color:#000000;&quot;&gt;Controller &lt;br style=&quot;mso-data-placement:same-cell;&quot;&gt;Manager&lt;/font&gt;&lt;/td&gt;&lt;td style=&quot;background-color:#eafaf1;font-size:10pt;color:#000000;border-left: .5pt solid #000000;border-top: .5pt solid #000000;border-right: .5pt solid #000000;border-bottom: .5pt solid #000000;text-align:left;mso-number-format: &#39;General&#39;;&quot;&gt;&lt;font style=&quot;font-size:10pt;color:#000000;&quot;&gt;协调发布状态最终一致组件&lt;/font&gt;&lt;/td&gt;&lt;/tr&gt;&lt;/tbody&gt;&lt;/table&gt;" style="text;whiteSpace=wrap;html=1;fontSize=15;fontFamily=Times New Roman;" vertex="1" parent="1">
          <mxGeometry x="1040" y="240" width="550" height="320" as="geometry" />
        </mxCell>
      </root>
    </mxGraphModel>
  </diagram>
</mxfile>
